<svg xmlns="http://www.w3.org/2000/svg" viewBox="0 0 100 100"><path fill="#00A676" d="M50 54.1c9.2 0 16.4-4.3 16.4-9.7 0-5.5-7.2-9.8-16.4-9.8s-16.4 4.3-16.4 9.8c0 5.4 7.2 9.7 16.4 9.7zm-9.5-4.6c3-1.4 6.2-2.1 9.5-2 3.3-.1 6.6.6 9.5 2-3 1.4-6.2 2-9.5 2s-6.6-.6-9.5-2zM50 37.2c7.5 0 13.8 3.3 13.8 7.2 0 1.3-.7 2.6-1.8 3.5a23 23 0 0 0-12-3 23 23 0 0 0-12 3c-1-.9-1.7-2.2-1.8-3.5 0-4 6.3-7.2 13.8-7.2zm0-20.8c-24.8 0-45 15-45 33.6s20.2 33.6 45 33.6 45-15 45-33.6-20.2-33.6-45-33.6zM19.9 28.3c8-6 18.7-9.3 30.1-9.3s22 3.3 30.1 9.3c3.8 2.7 7 6.2 9.3 10.2h-.1c5 8.8-1.8 17.3-7.4 20.6-1 .6-1.6 1.7-1.6 2.8l-.1 3c0 .6-.3 1.1-.8 1.4a1 1 0 0 1-1 .2c-1.3-.5-1.8-1.7-2.4-3-.8-1.8-2-4.6-6.2-3.3-1.6.4-2.2 2.3-2.9 4.7-.7 2.3-1.5 5.2-3 5.2-1 0-1.8-.7-2.2-1.6a3.2 3.2 0 0 0-3.5-2.3l-2.1.2c-2 0-3.2.2-4 1.3-.8 1-.8 2.4-.8 5a2.3 2.3 0 0 1-4.6 0v-3c0-3.6-7-4.7-10.4-4.7a12 12 0 0 0-4 .5c-2 .8-2.2 2-2.2 2.8a2.3 2.3 0 0 1-4.6 0v-3.7a3 3 0 0 0-2-3C11.3 56.2 9.2 50.5 8 45a29 29 0 0 1 12-16.7zm60.2 43.4c-8 6-18.7 9.3-30.1 9.3s-22-3.3-30.1-9.3A28 28 0 0 1 7.7 52.1c2.1 4 6.2 8.1 14.7 11.8.3.1.5.4.5.7v3.7a4.9 4.9 0 1 0 9.8 0c.1-.3 1.6-.9 4.9-.7 3.8.3 6.3 1.5 6.5 2v3a4.9 4.9 0 0 0 9.8 0c0-1.1 0-2.3.3-3.4a60.1 60.1 0 0 0 4.4-.4c.2 0 .6.1.7.5.6 2 2.5 3.4 4.6 3.4 3.4 0 4.6-4 5.5-7 .3-1 .6-2.1 1.2-3 2-.6 2.2 0 3 1.8.7 1.5 1.5 3.5 4 4.4 1 .4 2.2.3 3.2-.4 1.2-.8 2-2.1 2-3.6v-3c0-.2.2-.4.4-.6 4-2.3 7.1-5.7 9-9.9l.2-.4A27.6 27.6 0 0 1 80 71.7zM17.4 41.8a1.3 1.3 0 0 1 0-1.8l2.5-2.5a1.3 1.3 0 0 1 1.8 1.9l-2.4 2.4a1.3 1.3 0 0 1-1.9 0zM77 42c-.5-.5-.5-1.3 0-1.8l2.4-2.5a1.3 1.3 0 0 1 1.9 1.9L78.7 42c-.5.5-1.3.5-1.8 0zM51.1 58.3c.5.5.5 1.4 0 1.9l-2.4 2.4c-.5.5-1.3.5-1.9 0-.5-.5-.5-1.3 0-1.8l2.5-2.5a1.3 1.3 0 0 1 1.8 0zm-8-33.2a1.3 1.3 0 0 1 1.8-.5l3 1.7c.3.2.5.5.6.8a1.3 1.3 0 0 1-.9 1.6c-.3.1-.7 0-1-.1l-3-1.8c-.3-.1-.5-.4-.6-.8l.1-1zM25.8 51.3a1.3 1.3 0 0 1 1.8-.5l3 1.7a1.3 1.3 0 1 1-1.4 2.3l-3-1.7c-.2-.2-.5-.5-.5-.8v-1zm44.6-.6c.3-.7 1.1-.9 1.7-.5l3 1.7a1.3 1.3 0 0 1-1.3 2.3l-3-1.7c-.6-.4-.8-1.2-.4-1.8zm-9-22.2a1.3 1.3 0 0 1 1.9-.5c.5.3.8 1 .6 1.5a1.3 1.3 0 0 1-1.9.8 1.3 1.3 0 0 1-.5-1.8zm-29.7 3a1.3 1.3 0 0 1 1.7-.4 1.3 1.3 0 1 1-1.2 2.2c-.7-.3-.9-1.1-.5-1.8zm30.4 27a1.3 1.3 0 0 1-1.8.4 1.3 1.3 0 1 1 1.3-2.2 1.3 1.3 0 0 1 .5 1.8z"/></svg>