<svg xmlns="http://www.w3.org/2000/svg" viewBox="0 0 100 100"><path fill="#1789FC" d="M79.7 26.6C72 20.6 61.5 17 50 17s-22 3.6-29.7 9.6A30.5 30.5 0 0 0 8 49.1v1.3C8 59.6 12.8 68 20.4 74c7.7 6 18.2 9.6 29.7 9.6S72 80 79.7 74c7.6-6 12.5-14.4 12.5-23.7 0-9.3-4.9-17.7-12.5-23.7zm-57.5 2.5c7-5.5 17-9 27.8-9 10.9 0 20.7 3.5 27.8 9 6.5 5 10.6 11.8 11.2 19.3-.3 1.6-1 2.8-1.7 3.7a8 8 0 0 1-4 2.6c-1.3.4-2.4.4-2.5.4a1.6 1.6 0 0 0-1.6 1.5c0 1.5-.1 3.2-.8 4.3-.4.5-.8 1-1.6 1.3a7 7 0 0 1-3.4.7c-.7 0-1.3.5-1.5 1.2-.1.4-.4 1.1-1 1.9-.7.8-1.8 1.6-3.4 2.1-.8.3-2.1.4-3.5.4a44 44 0 0 1-6-.5h-.4l-.1-.1c-.4 0-.9 0-1.2.3-.1 0-1 .8-2.3 1.5-1.3.7-3 1.4-4.3 1.4a4 4 0 0 1-1.7-.4c-.5-.2-1-.6-1.6-1.2-.4-.6-1-.8-1.7-.6-.2 0-2.3.7-4.5.7-1.2 0-2.3-.2-3.3-.6a4 4 0 0 1-2-2c-.4-.6-1-1-1.6-1h-1c-1.5 0-4.8-.1-7.7-1.4a11 11 0 0 1-3.8-2.7 9.2 9.2 0 0 1-2-4.8c-.1-.8-.8-1.4-1.5-1.4a9 9 0 0 1-3.5-1c-.8-.4-1.5-1-2-1.9-.5-.8-1-1.9-1-3.5.4-7.8 4.5-15 11.3-20.3zm55.6 42.4c-7 5.6-17 9-27.8 9a45.2 45.2 0 0 1-27.8-9c-5-3.9-8.5-8.8-10.2-14.2a11 11 0 0 0 4 1.5c.5 2.1 1.4 3.9 2.6 5.3 2 2.4 5 3.7 7.5 4.4 2.6.7 5 .8 6.3.8h.2c.8 1.3 2 2.2 3.2 2.7 1.5.6 3 .8 4.5.8a20 20 0 0 0 4.5-.5 7 7 0 0 0 5 2c2.3 0 4.4-1 6-1.8l2-1.3c1.2.1 3.7.4 6.2.4 1.5 0 3 0 4.4-.5a10 10 0 0 0 6.1-5.2c1.4 0 2.7-.3 3.7-.8 2-1 3-2.5 3.6-4.1.3-1 .5-2 .5-3a11 11 0 0 0 6.2-2.7 28.5 28.5 0 0 1-10.7 16.2z"/><path fill="#1789FC" d="M40.6 51.2c2.6 1 5.7 1.5 9 1.5 4.5 0 8.6-1 11.6-2.6a12 12 0 0 0 3.8-3c1-1.2 1.5-2.7 1.5-4.2 0-1.6-.7-3-1.8-4.3-1.5-1.8-4-3.2-6.8-4.2s-6-1.6-9.4-1.6a1.6 1.6 0 1 0 0 3.1c4 0 7.9 1 10.7 2.4 1.4.7 2.5 1.6 3.2 2.4.7.8 1 1.5 1 2.2 0 .7-.3 1.4-.9 2.2-.5.7-1.4 1.4-2.5 2-1.3-.7-5.4-2.9-10.7-2.9-3 0-6.5.8-10 3-1-.7-2-1.4-2.5-2-.6-.9-.9-1.6-.9-2.3a1.6 1.6 0 1 0-3 0c0 1.5.5 3 1.5 4.2a14 14 0 0 0 6.2 4zM56 48.7a25 25 0 0 1-13 0 15 15 0 0 1 6.3-1.4c2.7 0 5 .7 6.7 1.4zm-35.7-1.8h.9a1.6 1.6 0 1 0 0-3.1h-.9a1.6 1.6 0 1 0 0 3zm8.5-9.4h.9a1.6 1.6 0 1 0 0-3.1h-.9a1.6 1.6 0 1 0 0 3.1zm9.4-9.4h.9a1.6 1.6 0 1 0 0-3.1h-1a1.6 1.6 0 1 0 0 3.1zm16.5 0h.9a1.6 1.6 0 1 0 0-3.1h-1a1.6 1.6 0 1 0 0 3.1zm14.1 4.7h.8a1.6 1.6 0 1 0 0-3.1h-.8a1.6 1.6 0 1 0 0 3.1zm5.3 11h.9a1.6 1.6 0 1 0 0-3.2h-.9a1.6 1.6 0 1 0 0 3.1zm-7.6 9.3h-.9a1.6 1.6 0 1 0 0 3.1h1a1.6 1.6 0 1 0 0-3zm-33 9.4h.9a1.6 1.6 0 1 0 0-3.1h-1a1.6 1.6 0 1 0 0 3.1zm12.7-6.2h-.9a1.6 1.6 0 1 0 0 3h.9a1.6 1.6 0 1 0 0-3zm-22.1 0h.9a1.6 1.6 0 1 0 0-3.2h-.9a1.6 1.6 0 1 0 0 3.1zm33.7 4.8H57a1.6 1.6 0 1 0 0 3.1h1a1.6 1.6 0 1 0 0-3.1zm21-9.5h.9a1.6 1.6 0 1 0 0-3.2h-.9a1.6 1.6 0 1 0 0 3.2z"/></svg>