<svg xmlns="http://www.w3.org/2000/svg" viewBox="0 0 100 100"><path fill="#E94F37" d="M96.5 44.6c-1.4-9-6-17.3-13.1-23a49.3 49.3 0 0 0-26.6-9.8c-9.6-1.2-19.2 0-28.2 3.2a45.6 45.6 0 0 0-17 11.3A32.2 32.2 0 0 0 3.2 49v1.2A37 37 0 0 0 19.1 80a50.4 50.4 0 0 0 25.4 8.3l6 .3c6.6 0 13-1 19.2-3.1a42 42 0 0 0 20.6-15.1 36.5 36.5 0 0 0 6.2-25.8zm-8.8 24a38.9 38.9 0 0 1-19 14 57.3 57.3 0 0 1-24 2.6A47.3 47.3 0 0 1 21 77.4c-5.6-4-9.9-9.5-12.3-16 .7.8 1.5 1.4 2.4 1.9a20 20 0 0 0 4 1.7c1.3.4 2.5.9 3.6 1.5a20 20 0 0 1 3.6 3c1.6 1.8 3.5 3.2 5.6 4.2 2 .7 4 1 6 .9 1.5 0 2.9 0 4.2.3 1.4.4 2.7 1 3.9 1.6 1 .6 2.3 1.1 3.4 1.6a14 14 0 0 0 7.7.4c1.7-.4 3.3-1 4.9-1.7 1.7-.8 3.4-1.4 5.3-1.7H66c1.5 0 3 0 4.6-.4 2.6-1 5-2.6 6.7-4.8 1.2-1.5 2.7-2.7 4.4-3.7l1.8-.6L85 65c3.2-1.4 5.9-3.8 7.6-6.8a34 34 0 0 1-4.8 10.4zM93.4 45c-.5 3.5-1.4 6.9-2.8 10.1a12.9 12.9 0 0 1-8.2 7.4l-2.2.8a19 19 0 0 0-5.3 4.3 12.6 12.6 0 0 1-5.3 4 12 12 0 0 1-3.7.2h-3c-2.2.4-4.3 1-6.2 2-1.4.7-2.9 1.2-4.4 1.6-2 .4-4 .3-6-.4l-3-1.3c-1.4-.8-3-1.5-4.6-2-1.5-.2-3.1-.4-4.8-.3-1.6 0-3.3-.2-5-.7a14 14 0 0 1-4.5-3.5 22.8 22.8 0 0 0-4.2-3.5c-1.3-.7-2.7-1.3-4.1-1.7l-3.6-1.5c-3-1.8-5-5.3-6-10.8v-4c.5-6.4 3-12.5 7.3-17.4 4.4-4.6 9.9-8.2 15.9-10.4a58.5 58.5 0 0 1 26.8-3.1c10.3 1 18.7 4 25 9A33.3 33.3 0 0 1 93.3 45z"/><path fill="#E94F37" d="M63 37.2a12.8 12.8 0 0 0-6.3-3.8 26.1 26.1 0 0 0-14-.6 13 13 0 0 0-7 4.2 8 8 0 0 0-1.1 8.5c1.2 2 3.1 3.6 5.4 4.4a24.6 24.6 0 0 0 17.5.8c3.8-1.3 6.3-3.5 7.2-6.1a8 8 0 0 0-1.8-7.4zm-6.5 10.5a21 21 0 0 1-15-.5 13 13 0 0 1 13.4-2c1.1.4 2 1.1 2.8 2a3 3 0 0 1-1.2.5zm5.2-4c-.3.7-.7 1.4-1.3 2a9.2 9.2 0 0 0-4.3-3.4 16.4 16.4 0 0 0-17.5 3.2c-.5-.4-1-.9-1.2-1.5-.8-1.7-.5-3.6.7-5a10 10 0 0 1 5.4-3.2c4.1-1 8.3-.7 12.3.6a10 10 0 0 1 4.7 2.8 4.8 4.8 0 0 1 1.2 4.4zM19.1 54.4l-3.4 1h-.4c-.7 0-1.4-.5-1.5-1.1a1.6 1.6 0 0 1 1-2l3.5-.9a1.6 1.6 0 0 1 .8 3zm.4-13.6-1.8 2.7a1.5 1.5 0 0 1-2.1.5 1.6 1.6 0 0 1-.6-2l1.7-2.8a1.6 1.6 0 1 1 2.7 1.6zm10.7-2.4a1.6 1.6 0 0 1-2 1l-1.4-.5a1.6 1.6 0 1 1 1.1-3l1.4.5c.4.2.7.5.8.8.2.4.2.8 0 1.2zM25 29.2l-.8.2c-.5 0-1-.2-1.3-.7L21.7 27a1.6 1.6 0 0 1 .4-2.2c.3-.3.8-.4 1.2-.3.4.1.8.4 1 .8l1.2 1.8c.2.3.3.8.2 1.2 0 .4-.3.7-.6 1zm15.6-3.6-3.3.9h-.4a1.6 1.6 0 0 1-.4-3l3.3-1c.4 0 .8 0 1.2.2s.7.6.8 1c0 .4 0 .8-.2 1.2-.2.4-.6.6-1 .7zm24.7 1.5c-.6.7-1.5.7-2.2.2-.6-.6-1.4-1-2.3-1a1.6 1.6 0 1 1 0-3 7 7 0 0 1 4.4 1.6c.6.6.7 1.6.1 2.2zm6.8 11.4L71 39.6c-.3.3-.7.4-1 .4a1.6 1.6 0 0 1-1-2.7l1.1-1.1c.7-.6 1.7-.5 2.3.1.5.7.5 1.6-.2 2.2zM78 26.3l-1 2.8c-.3.6-.9 1-1.5 1H75a1.6 1.6 0 0 1-1-2l1-2.9a1.6 1.6 0 0 1 2.1-.9c.4.2.7.4.9.8.2.4.2.8 0 1.2zm5.5 18.4a1.6 1.6 0 0 1-2.1-.4l-2.6-3.7a1.6 1.6 0 0 1 2.5-1.8l2.6 3.7c.5.7.3 1.7-.4 2.2zm.5 8.8c0 .8-.7 1.4-1.5 1.4h-.1l-2.6-.2c-.9 0-1.5-.8-1.4-1.7 0-.8.8-1.4 1.6-1.4l2.6.2c.9 0 1.5.8 1.4 1.7zM70.7 59a1.6 1.6 0 0 1-2.2.4l-2.2-1.7c-.3-.3-.6-.7-.6-1 0-.5 0-1 .3-1.2.5-.7 1.5-.8 2.2-.3l2.2 1.7a1.6 1.6 0 0 1 .3 2.2zm-38.9-2.7-.5 3c-.1.8-.8 1.4-1.5 1.4h-.3c-.4 0-.7-.3-1-.6l-.3-1.2.5-3a1.6 1.6 0 1 1 3.1.4zM44 65.4c0 .8-.6 1.6-1.5 1.6l-3 .3H39a1.6 1.6 0 0 1-.2-3.1l3.4-.3c.8 0 1.6.6 1.7 1.5zM59.9 68l-.6.2c-.7 0-1.2-.4-1.5-1l-1-2.3a1.6 1.6 0 0 1 2.9-1.2l1 2.3c.3.8 0 1.7-.8 2zm-7.3-11-1.7 1-.8.1a1.6 1.6 0 0 1-.8-2.9l1.7-1c.8-.4 1.8-.1 2.2.6.4.8.1 1.7-.6 2.2zm0-39.2c0 .9-.6 1.6-1.4 1.7l-3.2.2a1.6 1.6 0 1 1-.2-3.1l3.1-.2a1.6 1.6 0 0 1 1.7 1.4z"/></svg>