<svg xmlns="http://www.w3.org/2000/svg" viewBox="0 0 100 100"><path fill="#C200FB" d="M50 18.8c-24.2 0-43.8 9.7-43.8 21.8 0 22.5 6.3 40.6 43.8 40.6s43.8-18.1 43.8-40.6c0-12-19.6-21.9-43.8-21.9zm0 3c24.3 0 40.6 9.8 40.6 18.8-.3 3.6-2.2 6.9-5.2 9-2 1.3-4.4 2-6.8 2.2-2.3.2-4.5.7-6.7 1.3l-6.3 2.2a42.3 42.3 0 0 1-15.6 4c-3.6.3-7 1-10.5 2a35 35 0 0 1-9.8 1.8c-3.2-1.4-6-3.7-7.8-6.6-1.5-2-3.3-4-5.3-5.4-3.3-2.3-7.2-5.9-7.2-10.5C9.4 31.6 25.7 22 50 22zm0 56.3c-16.4 0-27.4-3.5-33.6-10.8a32 32 0 0 1-6.6-18 25 25 0 0 0 5 4.4C19.3 56.6 22.5 64.4 29 66l2.2.2c5.5 0 13-3.7 18.7-3.7 8.4 0 16.2-4.3 22.8-6.2 6-1.9 11-1.3 14.6-4.2 1-.9 2-1.8 2.8-2.8-1.8 18-10.7 28.8-40.1 28.8z"/><path fill="#C200FB" d="M50 46.9c8.6 0 15.6-3.5 15.6-7.8s-7-7.9-15.6-7.9-15.6 3.6-15.6 7.9 7 7.8 15.6 7.8zm0-12.5c7.8 0 12.5 3.1 12.5 4.7s-4.8 4.6-12.5 4.6-12.5-3-12.5-4.6 4.8-4.7 12.5-4.7zM15 42l6.2 3.2.7.1c.9 0 1.5-.7 1.5-1.6 0-.5-.3-1.1-.8-1.4l-6.3-3c-.8-.5-1.7-.1-2 .6s-.1 1.8.6 2.1zm23.2 6.6c-.8-.4-1.7 0-2.1.7L33 55.6c-.4.7 0 1.7.7 2 .2.2.4.2.7.2.6 0 1.1-.3 1.4-.9l3.1-6.2c.4-.8 0-1.7-.7-2.1zm29.5-16.3c.5.6 1.5.7 2 .1h.1c.6-.6.7-1.6.1-2.2L66.7 27c-.6-.6-1.6-.6-2.2 0s-.6 1.6 0 2.2zm-30.2-2.6c.4 0 .8-.2 1-.5l3.2-3.1c.6-.6.6-1.6 0-2.2s-1.6-.6-2.2 0l-3 3.1c-.7.6-.7 1.6-.2 2.2h.1c.3.3.7.5 1.1.5zm33.7 15.5 6.2 3c.3.2.5.2.7.2.9 0 1.6-.7 1.6-1.5 0-.6-.4-1.2-.9-1.4l-6.2-3.2c-.8-.3-1.8 0-2.1.8s0 1.7.7 2zm-14.9 6.4c0 2-3.2 2-3.2 0s3.1-2.1 3.1 0m12.6-3.2c0 2.1-3.2 2.1-3.2 0s3.2-2 3.2 0m18.7-6.2c0 2-3.1 2-3.1 0s3.1-2 3.1 0m-9.4-9.4c0 2-3.1 2-3.1 0s3.1-2 3.1 0M46.9 54.7c0 2-3.1 2-3.1 0s3-2 3 0M18.8 36c0 2-3.2 2-3.2 0s3.2-2.1 3.2 0m40.6-9.4c0 2-3.1 2-3.1 0s3-2.1 3 0M34.4 45.3c0 2-3.1 2-3.1 0s3-2 3 0m-6.2 6.3c0 2-3.1 2-3.1 0s3.1-2.1 3.1 0m0-18.8c0 2-3.1 2-3.1 0s3.1-2 3.1 0m34.4 42.9v-1.5c10.7-1.6 17.4-5.4 21-12l1.4.7C81 70 74 74 62.5 75.7z"/><path fill="#C200FB" d="m68.8 71.3-.5-1.5a23 23 0 0 0 9.2-5l1 1.2a24.7 24.7 0 0 1-9.8 5.2z"/></svg>